<svg width="250" height="341" viewBox="0 0 250 341" fill="none" xmlns="http://www.w3.org/2000/svg">
<path d="M249.883 132.092V125.072C249.883 56.0425 193.808 0 125 0C56.1916 0 0.11683 56.1595 0.11683 125.072V129.986C0.11683 130.337 0.116837 130.571 0.233659 130.922C0.116837 132.677 0 134.432 0 136.187V165.671V198.898V203.461C0 207.088 0.116837 210.598 0.233659 213.991C0.116837 214.342 0.11683 214.693 0.11683 215.044C0.11683 284.074 56.1916 340.116 125 340.116C193.808 340.116 249.883 283.957 249.883 215.044C249.883 214.693 249.883 214.342 249.766 213.991C249.883 210.598 250 207.088 250 203.461V198.898V165.554V135.953C250 134.783 249.883 133.496 249.883 132.092ZM125 10.5299C177.336 10.5299 221.495 45.8636 235.047 93.9502C222.663 78.6233 203.855 68.9124 182.827 68.9124C158.995 68.9124 137.266 81.4313 125.234 101.555C113.201 81.4313 91.4719 68.9124 67.6402 68.9124C46.3785 68.9124 27.3365 78.7403 14.9533 94.1842C28.3879 45.8636 72.6636 10.5299 125 10.5299ZM125 329.703C90.3038 329.703 59.1121 314.142 38.0841 289.573C48.014 294.487 59.8131 296.944 73.4813 296.944C104.206 296.944 118.458 287.116 125 272.608C131.542 287.116 145.794 296.944 176.519 296.944C190.187 296.944 201.986 294.487 211.916 289.573C190.771 314.142 159.696 329.703 125 329.703ZM176.402 286.531C137.5 286.531 131.075 270.385 130.14 244.996C130.257 242.188 130.257 239.38 130.257 236.572C130.257 235.285 130.257 233.881 130.14 232.711C130.607 225.691 132.477 221.713 134.112 219.49C135.981 217.033 138.201 215.746 140.771 215.746C144.626 215.746 148.832 218.905 148.832 223.819C148.832 226.744 151.168 229.084 154.089 229.084C157.009 229.084 159.346 226.744 159.346 223.819C159.346 213.523 151.051 205.216 140.771 205.216C134.813 205.216 129.439 208.141 125.584 213.289C125.35 213.64 125.117 213.991 124.883 214.459C124.65 214.108 124.416 213.64 124.182 213.289C120.327 208.024 114.953 205.216 108.995 205.216C98.715 205.216 90.4205 213.64 90.4205 223.819C90.4205 226.744 92.757 229.084 95.6775 229.084C98.5981 229.084 100.935 226.744 100.935 223.819C100.935 218.788 105.14 215.746 108.995 215.746C111.565 215.746 113.902 217.033 115.654 219.49C117.29 221.713 119.042 225.691 119.626 232.711C119.509 233.998 119.509 235.285 119.509 236.572C119.509 239.38 119.509 242.305 119.626 244.996C118.808 270.385 112.383 286.531 73.3645 286.531C30.3738 286.531 10.2804 260.206 10.2804 203.461V198.898V179.711C10.2804 155.609 29.7897 136.07 53.8551 136.07C77.9206 136.07 97.4299 155.609 97.4299 179.711C97.4299 182.635 99.7663 184.975 102.687 184.975C105.607 184.975 107.944 182.635 107.944 179.711C107.944 149.876 83.6449 125.54 53.8551 125.54C35.9813 125.54 20.0935 134.315 10.2804 147.653V136.07C10.2804 104.714 35.8645 79.3253 67.4065 79.3253C90.3037 79.3253 110.865 93.0142 119.743 114.191C120.678 116.297 122.78 117.584 125 117.35C127.22 117.584 129.439 116.297 130.257 114.191C139.136 93.0142 159.696 79.3253 182.593 79.3253C213.902 79.3253 239.252 104.831 239.252 136.07V147.653C229.439 134.198 213.551 125.54 195.678 125.54C165.888 125.54 141.589 149.876 141.589 179.711C141.589 182.635 143.925 184.975 146.846 184.975C149.766 184.975 152.103 182.635 152.103 179.711C152.103 155.609 171.612 136.07 195.678 136.07C219.743 136.07 239.252 155.609 239.252 179.711V203.461C239.486 260.206 219.509 286.531 176.402 286.531Z" fill="white"/>
</svg>
