<svg width="4875" height="6334" viewBox="0 0 4875 6334" fill="none" xmlns="http://www.w3.org/2000/svg">
<path d="M4872.98 3406.75V3307.97C4872.98 2336.61 4082.32 1548 3112.13 1548C2141.93 1548 1351.27 2338.26 1351.27 3307.97V3377.12C1351.27 3382.06 1351.27 3385.35 1352.92 3390.29C1351.27 3414.98 1349.62 3439.68 1349.62 3464.38V4411.04C1349.62 4462.08 1351.27 4511.47 1352.92 4559.21C1351.27 4564.15 1351.27 4569.09 1351.27 4574.03C1351.27 5545.39 2141.93 6334 3112.13 6334C4082.32 6334 4872.98 5543.74 4872.98 4574.03C4872.98 4569.09 4872.98 4564.15 4871.33 4559.21C4872.98 4511.47 4874.62 4462.08 4874.62 4411.04V3461.08C4874.62 3444.62 4872.98 3426.51 4872.98 3406.75ZM3112.13 1696.17C3850.07 1696.17 4472.71 2193.38 4663.78 2870.04C4489.18 2654.36 4223.98 2517.71 3927.49 2517.71C3591.46 2517.71 3285.08 2693.87 3115.42 2977.05C2945.76 2693.87 2639.38 2517.71 2303.35 2517.71C2003.56 2517.71 1735.07 2656.01 1560.47 2873.33C1749.89 2193.38 2374.18 1696.17 3112.13 1696.17ZM3112.13 6187.47C2622.91 6187.47 2183.11 5968.51 1886.61 5622.77C2026.62 5691.92 2192.99 5726.49 2385.71 5726.49C2818.92 5726.49 3019.88 5588.19 3112.13 5384.04C3204.37 5588.19 3405.33 5726.49 3838.54 5726.49C4031.26 5726.49 4197.63 5691.92 4337.64 5622.77C4039.5 5968.51 3601.34 6187.47 3112.13 6187.47ZM3836.89 5579.96C3288.38 5579.96 3197.78 5352.76 3184.6 4995.5C3186.25 4955.99 3186.25 4916.47 3186.25 4876.96C3186.25 4858.85 3186.25 4839.1 3184.6 4822.63C3191.19 4723.85 3217.55 4667.87 3240.61 4636.59C3266.96 4602.02 3298.26 4583.91 3334.5 4583.91C3388.85 4583.91 3448.15 4628.36 3448.15 4697.51C3448.15 4738.67 3481.1 4771.59 3522.28 4771.59C3563.46 4771.59 3596.4 4738.67 3596.4 4697.51C3596.4 4552.63 3479.45 4435.73 3334.5 4435.73C3250.49 4435.73 3174.72 4476.89 3120.36 4549.33C3117.07 4554.27 3113.77 4559.21 3110.48 4565.8C3107.18 4560.86 3103.89 4554.27 3100.59 4549.33C3046.24 4475.25 2970.47 4435.73 2886.46 4435.73C2741.51 4435.73 2624.55 4554.27 2624.55 4697.51C2624.55 4738.67 2657.5 4771.59 2698.68 4771.59C2739.86 4771.59 2772.8 4738.67 2772.8 4697.51C2772.8 4626.71 2832.1 4583.91 2886.46 4583.91C2922.7 4583.91 2955.64 4602.02 2980.35 4636.59C3003.41 4667.87 3028.12 4723.85 3036.35 4822.63C3034.71 4840.74 3034.71 4858.85 3034.71 4876.96C3034.71 4916.47 3034.71 4957.63 3036.35 4995.5C3024.82 5352.76 2934.23 5579.96 2384.06 5579.96C1777.9 5579.96 1494.58 5209.53 1494.58 4411.04V4076.83C1494.58 3737.67 1769.66 3462.73 2108.98 3462.73C2448.3 3462.73 2723.39 3737.67 2723.39 4076.83C2723.39 4117.98 2756.33 4150.91 2797.51 4150.91C2838.69 4150.91 2871.63 4117.98 2871.63 4076.83C2871.63 3657 2529.02 3314.56 2108.98 3314.56C1856.96 3314.56 1632.94 3438.03 1494.58 3625.72V3462.73C1494.58 3021.5 1855.31 2664.24 2300.06 2664.24C2622.91 2664.24 2912.81 2856.86 3038 3154.86C3051.18 3184.49 3080.83 3202.6 3112.13 3199.31C3143.42 3202.6 3174.72 3184.49 3186.25 3154.86C3311.44 2856.86 3601.34 2664.24 3924.19 2664.24C4365.64 2664.24 4723.08 3023.15 4723.08 3462.73V3625.72C4584.72 3436.39 4360.7 3314.56 4108.68 3314.56C3688.64 3314.56 3346.03 3657 3346.03 4076.83C3346.03 4117.98 3378.97 4150.91 3420.15 4150.91C3461.33 4150.91 3494.27 4117.98 3494.27 4076.83C3494.27 3737.67 3769.36 3462.73 4108.68 3462.73C4448 3462.73 4723.08 3737.67 4723.08 4076.83V4411.04C4726.38 5209.53 4444.71 5579.96 3836.89 5579.96Z" fill="white"/>
<path d="M3751.09 897.994L4834.73 124.16L2207.07 0.0195312L0.755859 1419.42L442.355 1461.25V2193.48C374.291 2212.47 324.356 2274.93 324.356 2349.05C324.356 2410.68 358.869 2464.24 409.619 2491.46C398.424 2535.58 263.356 3070.27 263.356 3188.06C263.356 3310.95 361.629 3410.56 482.856 3410.56C604.082 3410.56 702.356 3310.95 702.356 3188.06C702.356 3113.34 571.402 2556.53 556.695 2494.23C610.38 2467.98 647.356 2412.84 647.356 2349.05C647.356 2278.24 601.777 2218.07 538.355 2196.28V1470.34L1333.86 1545.69L1589.19 2498.57C1589.19 2498.57 2232.3 2054.7 2704.5 1924C3195.28 1788.17 4006.42 1850.88 4006.42 1850.88L3751.09 897.994Z" fill="white"/>
</svg>
